0
SECTION
2
HEADER
9
$INSUNITS
70
4
9
$ACADVER
1
AC1014
9
$HANDSEED
5
FFFF
0
ENDSEC
0
SECTION
2
TABLES
0
TABLE
2
VPORT
5
8
100
AcDbSymbolTable
0
ENDTAB
0
TABLE
2
LTYPE
5
5
100
AcDbSymbolTable
0
LTYPE
5
14
100
AcDbSymbolTableRecord
100
AcDbLinetypeTableRecord
2
BYBLOCK
70
0
0
LTYPE
5
15
100
AcDbSymbolTableRecord
100
AcDbLinetypeTableRecord
2
BYLAYER
70
0
0
ENDTAB
0
TABLE
2
LAYER
5
2
100
AcDbSymbolTable
70
2
0
LAYER
5
50
100
AcDbSymbolTableRecord
100
AcDbLayerTableRecord
2
0
70
0
6
CONTINUOUS
0
ENDTAB
0
TABLE
2
STYLE
5
3
100
AcDbSymbolTable
70
1
0
STYLE
5
11
100
AcDbSymbolTableRecord
100
AcDbTextStyleTableRecord
2
STANDARD
70
0
0
ENDTAB
0
TABLE
2
VIEW
5
6
100
AcDbSymbolTable
70
0
0
ENDTAB
0
TABLE
2
UCS
5
7
100
AcDbSymbolTable
70
0
0
ENDTAB
0
TABLE
2
APPID
5
9
100
AcDbSymbolTable
70
2
0
APPID
5
12
100
AcDbSymbolTableRecord
100
AcDbRegAppTableRecord
2
ACAD
70
0
0
ENDTAB
0
TABLE
2
DIMSTYLE
5
A
100
AcDbSymbolTable
70
1
0
ENDTAB
0
TABLE
2
BLOCK_RECORD
5
1
100
AcDbSymbolTable
70
1
0
BLOCK_RECORD
5
1F
100
AcDbSymbolTableRecord
100
AcDbBlockTableRecord
2
*MODEL_SPACE
0
BLOCK_RECORD
5
1B
100
AcDbSymbolTableRecord
100
AcDbBlockTableRecord
2
*PAPER_SPACE
0
ENDTAB
0
ENDSEC
0
SECTION
2
BLOCKS
0
BLOCK
5
20
100
AcDbEntity
100
AcDbBlockBegin
2
*MODEL_SPACE
0
ENDBLK
5
21
100
AcDbEntity
100
AcDbBlockEnd
0
BLOCK
5
1C
100
AcDbEntity
100
AcDbBlockBegin
2
*PAPER_SPACE
0
ENDBLK
5
1D
100
AcDbEntity
100
AcDbBlockEnd
0
ENDSEC
0
SECTION
2
ENTITIES
0
LWPOLYLINE
5
100
100
AcDbEntity
8
0
100
AcDbPolyline
90
36
70
1
43
0.0
10
-427.19999999999999
20
254.80000000000001
10
-427.19999999999999
20
66.200000000000017
42
0.41421356237310181
10
-422.19999999999999
20
61.20000000000001
10
-240.59999999999999
20
61.20000000000001
10
-240.59999999999999
20
74.200000000000003
10
-291.80000000000001
20
74.200000000000003
42
0.41421356237313145
10
-292.30000000000007
20
73.700000000000017
10
-292.30000000000007
20
72.382729965664055
42
0.22551236680623252
10
-292.11578947368423
20
71.995074179804675
42
-2.8109099885546636
10
-297.48421052631585
20
71.995074179804675
42
0.22551236680623252
10
-297.30000000000007
20
72.382729965664055
10
-297.30000000000007
20
73.700000000000017
42
0.41421356237313145
10
-297.80000000000007
20
74.200000000000003
10
-396.20000000000005
20
74.200000000000003
42
-0.41421356237309503
10
-401.19999999999999
20
79.199999999999946
10
-401.19999999999999
20
228.70000000000005
42
-0.41421356237309503
10
-396.20000000000005
20
233.69999999999999
10
-60.999999999999936
20
233.69999999999999
42
-0.41421356237309503
10
-55.999999999999936
20
228.69999999999999
10
-55.999999999999936
20
79.200000000000003
42
-0.41421356237309503
10
-60.999999999999943
20
74.200000000000003
10
-159.40000000000001
20
74.200000000000003
42
0.41421356237310542
10
-159.90000000000003
20
73.700000000000017
10
-159.90000000000003
20
72.382729965664069
42
0.22551236680626627
10
-159.71578947368423
20
71.995074179804689
42
-2.8109099885546716
10
-165.08421052631581
20
71.995074179804689
42
0.22551236680623252
10
-164.90000000000003
20
72.382729965664069
10
-164.90000000000003
20
73.700000000000017
42
0.41421356237313145
10
-165.40000000000003
20
74.200000000000003
10
-216.59999999999999
20
74.200000000000003
10
-216.59999999999999
20
61.20000000000001
10
-35.000000000000007
20
61.20000000000001
42
0.41421356237309553
10
-30
20
66.200000000000017
10
-29.999999999999982
20
254.80000000000001
42
0.41421356237309609
10
-35.000000000000071
20
259.80000000000001
10
-422.19999999999999
20
259.79999999999995
42
0.41421356237310125
0
CIRCLE
5
101
100
AcDbEntity
8
0
100
AcDbCircle
10
-43.999999999999972
20
75.200000000000017
30
0
40
4.25
210
0
220
0
230
1
0
CIRCLE
5
102
100
AcDbEntity
8
0
100
AcDbCircle
10
-413.19999999999999
20
75.200000000000017
30
0
40
4.25
210
0
220
0
230
1
0
CIRCLE
5
103
100
AcDbEntity
8
0
100
AcDbCircle
10
-43.999999999999986
20
245.79999999999995
30
0
40
4.25
210
0
220
0
230
1
0
CIRCLE
5
104
100
AcDbEntity
8
0
100
AcDbCircle
10
-162.40000000000003
20
252.29999999999995
30
0
40
4.25
210
0
220
0
230
1
0
CIRCLE
5
105
100
AcDbEntity
8
0
100
AcDbCircle
10
-294.80000000000001
20
252.29999999999993
30
0
40
4.25
210
0
220
0
230
1
0
CIRCLE
5
106
100
AcDbEntity
8
0
100
AcDbCircle
10
-413.19999999999999
20
245.79999999999998
30
0
40
4.25
210
0
220
0
230
1
0
CIRCLE
5
107
100
AcDbEntity
8
0
100
AcDbCircle
10
-43.999999999999986
20
160.5
30
0
40
4.25
210
0
220
0
230
1
0
CIRCLE
5
108
100
AcDbEntity
8
0
100
AcDbCircle
10
-413.19999999999999
20
160.49999999999997
30
0
40
4.25
210
0
220
0
230
1
0
ENDSEC
0
SECTION
2
OBJECTS
0
DICTIONARY
5
C
100
AcDbDictionary
3
ACAD_GROUP
350
D
3
ACAD_MLINESTYLE
350
17
0
DICTIONARY
5
D
100
AcDbDictionary
0
DICTIONARY
5
1A
330
C
100
AcDbDictionary
0
DICTIONARY
5
17
100
AcDbDictionary
0
ENDSEC
0
EOF
